<svg id="visual" viewBox="0 0 1920 1080" width="1920" height="1080" xmlns="http://www.w3.org/2000/svg" xmlns:xlink="http://www.w3.org/1999/xlink" version="1.1"><rect x="0" y="0" width="1920" height="1080" fill="#001220"></rect><path d="M0 667L45.7 672.8C91.3 678.7 182.7 690.3 274.2 699.7C365.7 709 457.3 716 548.8 713.5C640.3 711 731.7 699 823 694.8C914.3 690.7 1005.7 694.3 1097 697.3C1188.3 700.3 1279.7 702.7 1371.2 713.3C1462.7 724 1554.3 743 1645.8 743.8C1737.3 744.7 1828.7 727.3 1874.3 718.7L1920 710L1920 1081L1874.3 1081C1828.7 1081 1737.3 1081 1645.8 1081C1554.3 1081 1462.7 1081 1371.2 1081C1279.7 1081 1188.3 1081 1097 1081C1005.7 1081 914.3 1081 823 1081C731.7 1081 640.3 1081 548.8 1081C457.3 1081 365.7 1081 274.2 1081C182.7 1081 91.3 1081 45.7 1081L0 1081Z" fill="#fa7268"></path><path d="M0 845L45.7 841.8C91.3 838.7 182.7 832.3 274.2 822.7C365.7 813 457.3 800 548.8 793.2C640.3 786.3 731.7 785.7 823 776C914.3 766.3 1005.7 747.7 1097 746.8C1188.3 746 1279.7 763 1371.2 766.5C1462.7 770 1554.3 760 1645.8 767.5C1737.3 775 1828.7 800 1874.3 812.5L1920 825L1920 1081L1874.3 1081C1828.7 1081 1737.3 1081 1645.8 1081C1554.3 1081 1462.7 1081 1371.2 1081C1279.7 1081 1188.3 1081 1097 1081C1005.7 1081 914.3 1081 823 1081C731.7 1081 640.3 1081 548.8 1081C457.3 1081 365.7 1081 274.2 1081C182.7 1081 91.3 1081 45.7 1081L0 1081Z" fill="#ef5f67"></path><path d="M0 853L45.7 863.5C91.3 874 182.7 895 274.2 903.3C365.7 911.7 457.3 907.3 548.8 902C640.3 896.7 731.7 890.3 823 886.2C914.3 882 1005.7 880 1097 885C1188.3 890 1279.7 902 1371.2 897.8C1462.7 893.7 1554.3 873.3 1645.8 857.7C1737.3 842 1828.7 831 1874.3 825.5L1920 820L1920 1081L1874.3 1081C1828.7 1081 1737.3 1081 1645.8 1081C1554.3 1081 1462.7 1081 1371.2 1081C1279.7 1081 1188.3 1081 1097 1081C1005.7 1081 914.3 1081 823 1081C731.7 1081 640.3 1081 548.8 1081C457.3 1081 365.7 1081 274.2 1081C182.7 1081 91.3 1081 45.7 1081L0 1081Z" fill="#e34c67"></path><path d="M0 911L45.7 916.8C91.3 922.7 182.7 934.3 274.2 932.5C365.7 930.7 457.3 915.3 548.8 903C640.3 890.7 731.7 881.3 823 878.5C914.3 875.7 1005.7 879.3 1097 881.2C1188.3 883 1279.7 883 1371.2 894.8C1462.7 906.7 1554.3 930.3 1645.8 931.7C1737.3 933 1828.7 912 1874.3 901.5L1920 891L1920 1081L1874.3 1081C1828.7 1081 1737.3 1081 1645.8 1081C1554.3 1081 1462.7 1081 1371.2 1081C1279.7 1081 1188.3 1081 1097 1081C1005.7 1081 914.3 1081 823 1081C731.7 1081 640.3 1081 548.8 1081C457.3 1081 365.7 1081 274.2 1081C182.7 1081 91.3 1081 45.7 1081L0 1081Z" fill="#d53867"></path><path d="M0 947L45.7 951.3C91.3 955.7 182.7 964.3 274.2 971.7C365.7 979 457.3 985 548.8 992C640.3 999 731.7 1007 823 999.8C914.3 992.7 1005.7 970.3 1097 959.7C1188.3 949 1279.7 950 1371.2 954.8C1462.7 959.7 1554.3 968.3 1645.8 974.2C1737.3 980 1828.7 983 1874.3 984.5L1920 986L1920 1081L1874.3 1081C1828.7 1081 1737.3 1081 1645.8 1081C1554.3 1081 1462.7 1081 1371.2 1081C1279.7 1081 1188.3 1081 1097 1081C1005.7 1081 914.3 1081 823 1081C731.7 1081 640.3 1081 548.8 1081C457.3 1081 365.7 1081 274.2 1081C182.7 1081 91.3 1081 45.7 1081L0 1081Z" fill="#c62368"></path></svg>